<svg width="163" height="35" viewBox="0 0 163 35" fill="none" xmlns="http://www.w3.org/2000/svg">
<path d="M20.4375 10.437L28.5312 14.2964L24.252 22.1772L23.083 31.0679L14.2656 29.4321L5.44922 31.0679L4.95801 27.3374L22.1357 13.9995L4.09863 21.8442L0 14.2964L8.09375 10.437L14.2656 3.93213L20.4375 10.437Z" fill="black"/>
<path d="M56.3924 14.2087H52.5914C52.483 13.5853 52.2831 13.0331 51.9917 12.5521C51.7004 12.0642 51.3379 11.6509 50.9043 11.3122C50.4707 10.9734 49.976 10.7193 49.4205 10.5499C48.8717 10.3738 48.2788 10.2857 47.6419 10.2857C46.5104 10.2857 45.5077 10.5703 44.6336 11.1394C43.7596 11.7017 43.0753 12.5283 42.5807 13.6192C42.0861 14.7033 41.8388 16.0278 41.8388 17.593C41.8388 19.1852 42.0861 20.5267 42.5807 21.6176C43.0821 22.7016 43.7664 23.5215 44.6336 24.077C45.5077 24.6258 46.507 24.9002 47.6318 24.9002C48.2551 24.9002 48.8378 24.8189 49.3798 24.6563C49.9286 24.4869 50.4198 24.2396 50.8535 23.9144C51.2939 23.5892 51.6631 23.1895 51.9612 22.7152C52.2661 22.2409 52.4762 21.6989 52.5914 21.0891L56.3924 21.1094C56.2501 22.0986 55.9418 23.0268 55.4675 23.8941C55 24.7614 54.3868 25.527 53.628 26.191C52.8691 26.8482 51.9816 27.3631 50.9653 27.7358C49.9489 28.1016 48.8208 28.2846 47.5809 28.2846C45.7516 28.2846 44.1187 27.8611 42.6823 27.0142C41.2459 26.1673 40.1144 24.9443 39.2878 23.3453C38.4612 21.7463 38.0479 19.8289 38.0479 17.593C38.0479 15.3503 38.4646 13.4329 39.298 11.8406C40.1314 10.2416 41.2663 9.01868 42.7026 8.17176C44.139 7.32483 45.7651 6.90137 47.5809 6.90137C48.7395 6.90137 49.8168 7.06398 50.8128 7.3892C51.8088 7.71442 52.6964 8.19209 53.4755 8.8222C54.2547 9.44554 54.895 10.2112 55.3964 11.1191C55.9045 12.0202 56.2365 13.0501 56.3924 14.2087ZM59.6827 28V12.3895H63.2499V14.9912H63.4125C63.6971 14.0901 64.1849 13.3956 64.876 12.9078C65.5739 12.4132 66.37 12.1659 67.2644 12.1659C67.4676 12.1659 67.6946 12.176 67.9453 12.1964C68.2028 12.2099 68.4162 12.2336 68.5856 12.2675V15.6518C68.4297 15.5976 68.1824 15.5502 67.8437 15.5095C67.5117 15.4621 67.1898 15.4384 66.8782 15.4384C66.2074 15.4384 65.6044 15.5841 65.0691 15.8754C64.5406 16.16 64.124 16.5563 63.8191 17.0645C63.5142 17.5726 63.3617 18.1587 63.3617 18.8227V28H59.6827ZM77.2979 28.3049C75.7328 28.3049 74.3811 27.9797 73.2428 27.3292C72.1113 26.672 71.2407 25.7438 70.6309 24.5445C70.0211 23.3385 69.7162 21.9191 69.7162 20.2862C69.7162 18.6804 70.0211 17.2711 70.6309 16.0583C71.2475 14.8388 72.1079 13.8902 73.2123 13.2127C74.3167 12.5283 75.6142 12.1862 77.1048 12.1862C78.0669 12.1862 78.9748 12.342 79.8285 12.6537C80.689 12.9586 81.4478 13.4329 82.105 14.0765C82.769 14.7202 83.2907 15.54 83.6702 16.536C84.0496 17.5252 84.2393 18.7041 84.2393 20.0728V21.2009H71.4439V18.7211H80.7127C80.7059 18.0164 80.5535 17.3897 80.2554 16.8409C79.9572 16.2853 79.5406 15.8483 79.0053 15.5299C78.4768 15.2114 77.8603 15.0522 77.1556 15.0522C76.4035 15.0522 75.7429 15.2351 75.1738 15.601C74.6047 15.9601 74.1609 16.4344 73.8424 17.0238C73.5308 17.6065 73.3715 18.2468 73.3648 18.9447V21.1094C73.3648 22.0173 73.5308 22.7965 73.8628 23.4469C74.1948 24.0906 74.6589 24.5852 75.2551 24.9307C75.8513 25.2695 76.5492 25.4389 77.3487 25.4389C77.884 25.4389 78.3684 25.3644 78.802 25.2153C79.2357 25.0595 79.6117 24.8325 79.9301 24.5344C80.2486 24.2363 80.4891 23.867 80.6517 23.4266L84.0869 23.8128C83.87 24.7207 83.4567 25.5134 82.847 26.191C82.2439 26.8617 81.4715 27.3834 80.5298 27.7561C79.588 28.122 78.5107 28.3049 77.2979 28.3049ZM91.8439 28.3151C90.8546 28.3151 89.9637 28.1389 89.171 27.7866C88.385 27.4275 87.7617 26.899 87.3009 26.2011C86.847 25.5033 86.62 24.6428 86.62 23.6197C86.62 22.7389 86.7826 22.0105 87.1078 21.4346C87.4331 20.8587 87.8769 20.398 88.4392 20.0524C89.0016 19.7069 89.6351 19.446 90.3397 19.2699C91.0511 19.0869 91.7863 18.9548 92.5451 18.8735C93.4598 18.7787 94.2017 18.694 94.7708 18.6194C95.34 18.5381 95.7533 18.4162 96.0107 18.2536C96.275 18.0842 96.4071 17.8233 96.4071 17.471V17.41C96.4071 16.6444 96.1801 16.0516 95.7262 15.6315C95.2722 15.2114 94.6184 15.0014 93.7647 15.0014C92.8636 15.0014 92.1487 15.1979 91.6203 15.5908C91.0986 15.9838 90.7462 16.4479 90.5633 16.9832L87.1282 16.4954C87.3992 15.5468 87.8464 14.7541 88.4697 14.1172C89.093 13.4735 89.8553 12.9925 90.7564 12.674C91.6575 12.3488 92.6535 12.1862 93.7444 12.1862C94.4964 12.1862 95.2451 12.2743 95.9904 12.4504C96.7357 12.6266 97.4166 12.9179 98.0332 13.3245C98.6498 13.7242 99.1444 14.2696 99.517 14.9607C99.8964 15.6518 100.086 16.5157 100.086 17.5523V28H96.5494V25.8556H96.4274C96.2038 26.2892 95.8888 26.6957 95.4823 27.0752C95.0825 27.4478 94.5777 27.7493 93.9679 27.9797C93.3649 28.2033 92.6569 28.3151 91.8439 28.3151ZM92.7992 25.6117C93.5377 25.6117 94.178 25.466 94.72 25.1747C95.2621 24.8765 95.6787 24.4836 95.9701 23.9957C96.2682 23.5079 96.4173 22.976 96.4173 22.4001V20.5606C96.3021 20.6555 96.1056 20.7435 95.8278 20.8248C95.5568 20.9061 95.2519 20.9773 94.9131 21.0383C94.5743 21.0992 94.239 21.1534 93.907 21.2009C93.575 21.2483 93.287 21.289 93.0431 21.3228C92.4943 21.3974 92.0031 21.5193 91.5695 21.6887C91.1358 21.8581 90.7937 22.0952 90.543 22.4001C90.2923 22.6982 90.1669 23.0844 90.1669 23.5587C90.1669 24.2363 90.4142 24.7478 90.9088 25.0933C91.4035 25.4389 92.0336 25.6117 92.7992 25.6117ZM111.581 12.3895V15.2351H102.607V12.3895H111.581ZM104.822 8.64943H108.501V23.3046C108.501 23.7992 108.576 24.1787 108.725 24.4429C108.881 24.7004 109.084 24.8765 109.335 24.9714C109.585 25.0662 109.863 25.1137 110.168 25.1137C110.398 25.1137 110.608 25.0967 110.798 25.0629C110.995 25.029 111.144 24.9985 111.245 24.9714L111.865 27.8476C111.669 27.9153 111.388 27.9898 111.022 28.0711C110.663 28.1524 110.222 28.1999 109.7 28.2134C108.779 28.2405 107.949 28.1016 107.21 27.7967C106.472 27.4851 105.886 27.004 105.452 26.3536C105.025 25.7031 104.815 24.8901 104.822 23.9144V8.64943ZM114.658 28V12.3895H118.337V28H114.658ZM116.507 10.1739C115.925 10.1739 115.423 9.98079 115.003 9.59459C114.583 9.20162 114.373 8.73073 114.373 8.18192C114.373 7.62634 114.583 7.15545 115.003 6.76925C115.423 6.37627 115.925 6.17979 116.507 6.17979C117.097 6.17979 117.598 6.37627 118.011 6.76925C118.431 7.15545 118.641 7.62634 118.641 8.18192C118.641 8.73073 118.431 9.20162 118.011 9.59459C117.598 9.98079 117.097 10.1739 116.507 10.1739ZM136.064 12.3895L130.504 28H126.439L120.88 12.3895H124.803L128.39 23.9856H128.553L132.151 12.3895H136.064ZM144.888 28.3049C143.363 28.3049 142.042 27.9695 140.924 27.2987C139.806 26.628 138.939 25.6896 138.322 24.4836C137.713 23.2775 137.408 21.8683 137.408 20.2557C137.408 18.6432 137.713 17.2305 138.322 16.0177C138.939 14.8049 139.806 13.8631 140.924 13.1923C142.042 12.5216 143.363 12.1862 144.888 12.1862C146.412 12.1862 147.733 12.5216 148.851 13.1923C149.969 13.8631 150.833 14.8049 151.443 16.0177C152.059 17.2305 152.368 18.6432 152.368 20.2557C152.368 21.8683 152.059 23.2775 151.443 24.4836C150.833 25.6896 149.969 26.628 148.851 27.2987C147.733 27.9695 146.412 28.3049 144.888 28.3049ZM144.908 25.3576C145.735 25.3576 146.426 25.1306 146.981 24.6767C147.537 24.2159 147.95 23.5994 148.221 22.827C148.499 22.0546 148.638 21.1941 148.638 20.2455C148.638 19.2902 148.499 18.4263 148.221 17.6539C147.95 16.8748 147.537 16.2548 146.981 15.7941C146.426 15.3334 145.735 15.103 144.908 15.103C144.061 15.103 143.356 15.3334 142.794 15.7941C142.239 16.2548 141.822 16.8748 141.544 17.6539C141.273 18.4263 141.138 19.2902 141.138 20.2455C141.138 21.1941 141.273 22.0546 141.544 22.827C141.822 23.5994 142.239 24.2159 142.794 24.6767C143.356 25.1306 144.061 25.3576 144.908 25.3576ZM157.757 28.2236C157.14 28.2236 156.612 28.0068 156.171 27.5731C155.731 27.1395 155.514 26.611 155.521 25.9877C155.514 25.3779 155.731 24.8562 156.171 24.4226C156.612 23.989 157.14 23.7721 157.757 23.7721C158.353 23.7721 158.871 23.989 159.312 24.4226C159.759 24.8562 159.986 25.3779 159.993 25.9877C159.986 26.401 159.877 26.777 159.667 27.1158C159.464 27.4546 159.193 27.7256 158.854 27.9289C158.522 28.1253 158.157 28.2236 157.757 28.2236Z" fill="black"/>
</svg>
